<?xml version="1.0" encoding="UTF-8"?>
<!-- Generator: visioncortex VTracer -->
<svg id="svg" version="1.1" xmlns="http://www.w3.org/2000/svg" style="display: block;" viewBox="0 0 1024 1024"><path d="M0 0 C337.92 0 675.84 0 1024 0 C1024 337.92 1024 675.84 1024 1024 C686.08 1024 348.16 1024 0 1024 C0 686.08 0 348.16 0 0 Z " transform="translate(0,0)" style="fill: #000000;"/><path d="M0 0 C1.28095047 0.00007553 2.56190094 0.00015106 3.88166809 0.00022888 C5.26966389 0.00533474 6.65765929 0.01055072 8.0456543 0.01586914 C9.47340343 0.01773564 10.9011532 0.01915845 12.3289032 0.02015686 C16.0755085 0.02396375 19.82207465 0.03377832 23.56866455 0.04486084 C27.39627554 0.05511437 31.22389289 0.05966291 35.05151367 0.06469727 C42.55348459 0.07540232 50.05542332 0.09245666 57.55737305 0.11352539 C58.78979451 3.74791352 59.8795245 7.24873354 60.55737305 11.02758789 C60.72140625 11.94169434 60.88543945 12.85580078 61.05444336 13.79760742 C61.92655653 18.89735266 62.76734533 24.00038464 63.55737305 29.11352539 C63.68176758 29.91532227 63.80616211 30.71711914 63.93432617 31.54321289 C69.03505916 66.36258776 64.84509709 102.7729369 62.21899414 137.62768555 C60.77558337 156.83021134 60.37423385 175.92129817 60.36987305 195.17602539 C60.36887604 196.32876953 60.36787903 197.48151367 60.36685181 198.66918945 C60.36843852 214.83865159 60.78918249 230.96252013 61.55737305 247.11352539 C60.89737305 247.11352539 60.23737305 247.11352539 59.55737305 247.11352539 C64.95715554 255.83625096 70.59328068 264.10377794 81.04956055 266.74243164 C88.15419399 268.54433143 88.15419399 268.54433143 90.68237305 272.11352539 C91.55737305 275.11352539 91.55737305 275.11352539 91.55737305 278.11352539 C84.85467954 280.83774657 79.06442718 281.52615204 71.86987305 281.36352539 C70.35151855 281.3438269 70.35151855 281.3438269 68.80249023 281.32373047 C66.59189482 281.28959579 64.38142201 281.24666201 62.17114258 281.19604492 C58.95685175 281.12264739 55.74273648 281.06828864 52.52799988 281.01919556 C49.7921586 280.97345927 47.05681368 280.91256132 44.32138062 280.8470459 C42.33420465 280.8016385 40.34678023 280.7675628 38.359375 280.73364258 C36.53152466 280.67998535 36.53152466 280.67998535 34.66674805 280.62524414 C33.58361328 280.59906006 32.50047852 280.57287598 31.38452148 280.54589844 C28.21861707 280.06171737 26.79367205 279.38624081 24.55737305 277.11352539 C23.66187819 271.10595358 23.66896993 263.81475815 25.36987305 257.92602539 C29.69773164 252.36163578 36.92763897 251.43947221 43.55737305 250.11352539 C37.94737305 250.11352539 32.33737305 250.11352539 26.55737305 250.11352539 C26.22118592 241.82891413 25.95347404 233.54676725 25.76078796 225.25773621 C25.64953722 220.52372512 25.51553027 215.79173649 25.34887695 211.05932617 C24.42278429 183.88676429 25.3579358 159.89341894 33.52243042 133.90179443 C36.18790606 125.32299174 38.05746906 116.59323614 39.86987305 107.80102539 C40.11423096 106.62836121 40.11423096 106.62836121 40.36352539 105.43200684 C46.23846801 78.97222531 46.23846801 78.97222531 48.55737305 52.11352539 C48.32775879 52.80873291 48.09814453 53.50394043 47.86157227 54.22021484 C41.12033588 74.49826226 33.53535135 94.34787857 25.38476562 114.0982666 C24.59371802 116.02500089 23.81275482 117.95544989 23.03588867 119.88793945 C18.02429841 132.3006845 13.33005965 142.95884774 3.94116211 152.62133789 C1.40677938 155.35425025 -0.8054117 158.34268313 -3.06762695 161.30102539 C-6.93667668 166.2944027 -10.9842575 171.03600984 -15.26293945 175.68774414 C-17.57855588 178.26480113 -19.76467761 180.91934931 -21.94262695 183.61352539 C-24.8044693 187.15369369 -27.73604227 190.57576162 -30.81762695 193.92602539 C-34.79205869 198.29239936 -38.44592972 202.84201665 -42.06176758 207.50366211 C-46.26408815 212.91729135 -50.58258324 218.23060657 -54.93969727 223.52026367 C-58.28642919 227.60663384 -61.41520078 231.7846411 -64.44262695 236.11352539 C-68.23487946 234.66354649 -71.8207298 232.94453988 -75.44262695 231.11352539 C-75.86672852 231.86375977 -76.29083008 232.61399414 -76.7277832 233.38696289 C-79.65403517 238.49343336 -82.61273687 243.47001776 -86.06762695 248.23852539 C-90.60617014 254.59657463 -94.73815734 261.1882422 -95.44262695 269.11352539 C-96.31055148 277.5034625 -96.31055148 277.5034625 -99.44262695 280.11352539 C-102.88307374 280.77514977 -105.19375031 280.80444879 -108.3137207 279.07836914 C-113.15704565 275.33911397 -116.09816488 271.08802843 -117.44262695 265.11352539 C-118.60727014 254.98342332 -117.6952499 245.81015231 -114.2199707 236.22680664 C-112.89331535 230.91351863 -114.01627275 226.85729544 -116.44262695 222.11352539 C-117.00579142 217.61552352 -116.9261176 213.45023483 -115.38012695 209.17602539 C-110.94776054 204.45769986 -104.97454303 203.45348488 -98.7434082 202.98071289 C-95.25263838 203.18221743 -93.72373464 204.55591981 -91.44262695 207.11352539 C-90.43452266 208.44074184 -89.43312002 209.77311454 -88.44262695 211.11352539 C-88.50933594 210.50186523 -88.57604492 209.89020508 -88.64477539 209.26000977 C-89.10882799 201.72564031 -87.01002237 197.63726219 -82.69262695 191.61352539 C-82.10352539 190.75259277 -81.51442383 189.89166016 -80.9074707 189.00463867 C-79.69024226 187.22669016 -78.4642859 185.45468598 -77.22973633 183.6887207 C-75.06100722 180.56361761 -72.97790968 177.38768189 -70.89648438 174.20410156 C-41.59235761 129.54667916 -41.59235761 129.54667916 -24.44262695 118.11352539 C-23.73232527 115.38335981 -23.73232527 115.38335981 -23.45043945 112.12915039 C-23.30533936 110.89358398 -23.16023926 109.65801758 -23.01074219 108.38500977 C-22.93878632 107.72847412 -22.86683044 107.07193848 -22.79269409 106.39550781 C-21.64544479 96.03775218 -20.20963588 85.78025595 -17.88012695 75.61352539 C-17.58356201 74.29143066 -17.58356201 74.29143066 -17.28100586 72.94262695 C-16.16993444 68.28034046 -14.64600693 64.39568945 -12.44262695 60.11352539 C-12.93810238 57.65721538 -12.93810238 57.65721538 -14.44262695 55.11352539 C-20.77248862 42.01814357 -22.40749867 30.41451266 -17.64575195 16.41430664 C-17.2487207 15.32504883 -16.85168945 14.23579102 -16.44262695 13.11352539 C-16.0455957 11.97270508 -15.64856445 10.83188477 -15.23950195 9.65649414 C-12.88986484 3.38831664 -12.88986484 3.38831664 -11.44262695 1.11352539 C-7.6357329 0.00925923 -3.94368156 -0.00777846 0 0 Z " transform="translate(466.442626953125,331.886474609375)" style="fill: #F5F7F6;"/><path d="M0 0 C17.65754307 -0.5279664 39.41794695 1.21689124 53 14 C55.87432415 18.67821033 55.20854683 22.81035773 54 28 C46.82103405 46.74240103 27.91337512 61.82260328 9.875 70 C8.25178271 70.6709956 6.62697912 71.33817798 5 72 C3.66036973 72.65392122 2.32467746 73.3162955 1 74 C8.30934715 77.50848663 14.99054432 77.30372936 23 77 C36.15621337 104.48776569 38.36460163 132.83788499 39 163 C-7.47990256 163.76004872 -7.47990256 163.76004872 -17 159 C-15.95951705 153.00192182 -14.79483336 147.06000664 -13.4375 141.125 C-11.97177106 134.43298503 -11.32924192 127.83460808 -11 121 C-11.29769287 121.4846875 -11.59538574 121.969375 -11.90209961 122.46875 C-13.24352539 124.64814123 -14.59042469 126.82409664 -15.9375 129 C-16.40607422 129.763125 -16.87464844 130.52625 -17.35742188 131.3125 C-17.80537109 132.034375 -18.25332031 132.75625 -18.71484375 133.5 C-19.33540649 134.50546875 -19.33540649 134.50546875 -19.96850586 135.53125 C-20.30889893 136.0159375 -20.64929199 136.500625 -21 137 C-21.33 137 -21.66 137 -22 137 C-21.9278125 136.34257812 -21.855625 135.68515625 -21.78125 135.0078125 C-21.4560123 131.67412607 -21.2180639 128.34251068 -21 125 C-20.94714844 124.27731934 -20.89429688 123.55463867 -20.83984375 122.81005859 C-19.81381345 111.99363177 -19.81381345 111.99363177 -23.625 102.25 C-25.03379105 100.78405718 -26.50155603 99.3741711 -28 98 C-30.28603279 95.7862414 -32.54899466 93.54926145 -34.8125 91.3125 C-35.41900391 90.71824219 -36.02550781 90.12398438 -36.65039062 89.51171875 C-46.22962238 79.9836035 -55.68732063 68.4675156 -56.625 54.5 C-56.37794768 48.27957558 -53.88669698 43.76519699 -50 39 C-44.02538742 34.02115618 -38.63349561 32.76629453 -31 33.375 C-24.29344062 33.63424654 -20.19838192 31.97570265 -14.48901367 28.27368164 C-9.09824428 24.8373016 -3.57413781 22.98053331 2.50537109 21.09277344 C7.87149798 19.41651086 12.8912177 17.39216396 17.93359375 14.8828125 C20 14 20 14 23 14 C23 13.34 23 12.68 23 12 C17.75801278 10.77421211 12.54223987 10.73860989 7.1796875 10.57421875 C4 10 4 10 2.1328125 8.33203125 C0.78765636 5.56286498 0.34627284 3.04720095 0 0 Z " transform="translate(484,161)" style="fill: #F5F7F6;"/><path d="M0 0 C3.75501211 1.0728606 4.82207853 1.65601735 7.0625 4.875 C7.6787609 8.59833829 7.60574208 12.29971288 7.5771637 16.06614685 C7.58758199 17.79944963 7.58758199 17.79944963 7.59821075 19.56776863 C7.61335825 22.77592121 7.61052155 25.98348027 7.60005772 29.19163334 C7.59307549 32.65117319 7.60905619 36.1106175 7.62205505 39.57012939 C7.64371706 46.34784709 7.64356254 53.12539703 7.63542951 59.90313797 C7.62913397 65.41121659 7.63026243 70.91924621 7.63670158 76.4273243 C7.63760324 77.21076595 7.63850489 77.99420761 7.63943387 78.80138992 C7.64128504 80.39286614 7.6431476 81.98434235 7.64502143 83.57581855 C7.66160767 98.50611037 7.65287383 113.43630775 7.63603585 128.3665939 C7.62133929 142.03004819 7.63596515 155.69328256 7.66480602 169.35670852 C7.69418944 183.38146723 7.70517532 197.40612441 7.69562382 211.43091255 C7.69460125 213.016895 7.69360664 214.60287746 7.6926403 216.18885994 C7.69216391 216.96921963 7.69168752 217.74957933 7.6911967 218.55358629 C7.6890311 224.05515148 7.69884437 229.5566207 7.71341133 235.0581646 C7.73091575 241.76273917 7.73084483 248.46703336 7.70805968 255.17159682 C7.69689973 258.59309102 7.69379359 262.01409092 7.71236038 265.43556404 C7.72820273 269.14314239 7.71342061 272.84935658 7.69068909 276.55686951 C7.70252482 277.64071519 7.71436054 278.72456087 7.72655493 279.84125036 C7.63574328 287.10272004 7.63574328 287.10272004 4.71073818 291.04332066 C2.0625 292.875 2.0625 292.875 -0.9375 293.5 C-4.90083283 292.67430566 -6.38284526 290.94058569 -8.9375 287.875 C-10.13794003 285.47411994 -10.06601465 283.98560344 -10.07172108 281.30403519 C-10.07617892 280.33536931 -10.08063676 279.36670344 -10.08522969 278.36868405 C-10.08504533 277.29691883 -10.08486097 276.2251536 -10.08467102 275.12091064 C-10.08834771 273.98820763 -10.0920244 272.85550462 -10.0958125 271.68847728 C-10.10688608 267.86685796 -10.11069938 264.0452658 -10.11450195 260.22363281 C-10.12022953 257.4941891 -10.12739722 254.76474949 -10.13441467 252.03530884 C-10.15419045 243.82544237 -10.16424683 235.61557465 -10.17314246 227.40569031 C-10.17752366 223.54121897 -10.18289091 219.676749 -10.18813133 215.81227875 C-10.20514494 202.96869313 -10.21963954 190.12510837 -10.22688007 177.28151321 C-10.22879003 173.94744109 -10.23071035 170.61336897 -10.23266602 167.27929688 C-10.23314976 166.45061083 -10.2336335 165.62192479 -10.2341319 164.76812705 C-10.24243376 151.3412895 -10.2677727 137.914541 -10.30024669 124.48774233 C-10.33330241 110.70827703 -10.3513275 96.928857 -10.35452431 83.14935184 C-10.35669083 75.4104172 -10.36545999 67.67161241 -10.39098549 59.93271637 C-10.41267224 53.34236097 -10.42075298 46.75216694 -10.41101871 40.16177991 C-10.4064679 36.79887899 -10.4105776 33.43658163 -10.42778015 30.07368088 C-10.44538926 26.42784511 -10.43844605 22.78285926 -10.42524719 19.13702393 C-10.43621644 18.07418159 -10.44718568 17.01133925 -10.45848733 15.91628957 C-10.40597774 9.92484133 -9.97913617 6.41149914 -5.9375 1.875 C-2.9375 -0.125 -2.9375 -0.125 0 0 Z " transform="translate(652.9375,236.125)" style="fill: #2F6948;"/><path d="M0 0 C0.495 0.433125 0.99 0.86625 1.5 1.3125 C2.16 -0.3375 2.82 -1.9875 3.5 -3.6875 C8.78 -3.6875 14.06 -3.6875 19.5 -3.6875 C19.56804447 4.74512927 19.62296991 13.17754154 19.65543652 21.61037254 C19.67102661 25.52697405 19.69214147 29.44337637 19.72631836 33.35986328 C19.75915161 37.1465002 19.77690294 40.93294672 19.78463173 44.71971512 C19.7901326 46.15726336 19.80087329 47.59480236 19.81719017 49.03226852 C19.94764533 61.01219751 18.91846869 72.10149764 10.5 81.3125 C0.21241117 89.24039436 -10.94377999 90.51198254 -23.5 89.3125 C-30.78242017 87.77110055 -35.9485728 84.15349825 -40.5 78.3125 C-42.49845234 74.96025737 -43.5 73.20074366 -43.5 69.3125 C-38.62817967 68.01334791 -33.49091648 67.55605137 -28.5 68.3125 C-25.5625 70.6875 -25.5625 70.6875 -23.5 73.3125 C-19.02624325 76.2950045 -14.74543192 75.79345651 -9.5 75.3125 C-4.74147526 73.668646 -2.30430517 71.46702617 0.5 67.3125 C1.54976964 64.16319107 1.60131595 61.92435544 1.5625 58.625 C1.55347656 57.63113281 1.54445313 56.63726563 1.53515625 55.61328125 C1.52355469 54.85402344 1.51195312 54.09476563 1.5 53.3125 C0.2625 54.4571875 0.2625 54.4571875 -1 55.625 C-6.6700075 60.28818374 -12.6136298 61.92526516 -19.921875 61.65625 C-29.71954215 60.34989438 -36.75389109 54.96982459 -42.8125 47.4375 C-47.82088897 38.16270562 -49.1585881 28.6590145 -46.80859375 18.25 C-43.47214745 8.19878101 -37.91853016 1.26150949 -28.5 -3.6875 C-19.23962873 -6.91104696 -8.01788398 -5.41207169 0 0 Z " transform="translate(451.5,675.6875)" style="fill: #306C4A;"/><path d="M0 0 C5.51347076 4.34878528 9.94672734 9.13353694 12.29296875 15.80859375 C10.0486143 16.84375723 7.79890008 17.86174352 5.54296875 18.87109375 C4.90875 19.16564453 4.27453125 19.46019531 3.62109375 19.76367188 C1.0196492 20.91535306 -1.11009709 21.83623907 -3.984375 21.703125 C-6.12139555 20.59342499 -7.10044443 19.37205817 -8.51953125 17.43359375 C-12.55378469 12.59447694 -15.90769121 11.12758831 -22.06640625 10.42578125 C-31.22502092 9.99588709 -38.21847208 11.36552065 -45.70703125 16.80859375 C-50.90380597 21.91256892 -54.27151417 28.31356918 -55.17578125 35.5703125 C-55.25421066 45.42300679 -54.49370241 54.0931655 -47.875 61.99609375 C-40.98263651 68.5214083 -34.125669 70.38967484 -24.75 70.17578125 C-19.98882737 69.60126234 -16.00668246 67.84011776 -11.70703125 65.80859375 C-10.71703125 65.47859375 -9.72703125 65.14859375 -8.70703125 64.80859375 C-6.23562673 60.10148697 -6.23562673 60.10148697 -3.70703125 51.80859375 C-11.95703125 51.47859375 -20.20703125 51.14859375 -28.70703125 50.80859375 C-28.70703125 45.85859375 -28.70703125 40.90859375 -28.70703125 35.80859375 C-14.18703125 35.80859375 0.33296875 35.80859375 15.29296875 35.80859375 C15.29296875 49.92419559 14.63847371 64.19083866 4.29296875 74.80859375 C-8.84805008 85.14189927 -21.32475964 87.05776377 -37.70703125 85.80859375 C-49.57755902 83.64557771 -59.78081365 76.63251463 -66.70703125 66.80859375 C-74.27807841 54.00224803 -75.71039853 39.94122966 -73.08984375 25.37890625 C-68.94013129 12.70943015 -59.78696398 3.78695294 -48.3203125 -2.5 C-33.08429817 -9.75904348 -14.28584047 -9.34522354 0 0 Z " transform="translate(555.70703125,653.19140625)" style="fill: #2F6B49;"/><path d="M0 0 C0.59039063 0.33902344 1.18078125 0.67804687 1.7890625 1.02734375 C2.52382813 1.41792969 3.25859375 1.80851563 4.015625 2.2109375 C11.97221692 6.90772169 17.46969871 14.04527926 19.7890625 23.02734375 C20.73729149 35.6006138 20.17898424 45.8953835 11.8828125 55.94921875 C3.89817476 63.87426965 -5.63163148 66.51135356 -16.59521484 66.53149414 C-25.52776691 66.2848075 -32.54490387 62.73042225 -39.1484375 56.77734375 C-46.57355352 48.6079007 -48.66833549 39.25706606 -48.546875 28.5078125 C-47.60537418 18.7534261 -42.64120393 10.31350341 -35.2109375 4.02734375 C-25.25558659 -2.13197573 -11.12478817 -5.3173547 0 0 Z " transform="translate(671.2109375,672.97265625)" style="fill: #306C4A;"/><path d="M0 0 C7.88107979 4.46098856 12.28012585 10.90312457 15.6328125 19.2734375 C18.59993065 30.18916575 16.64644267 40.94054112 11.234375 50.6484375 C6.408258 57.91503412 -1.20740321 62.15525395 -9.515625 64.40625 C-21.72551846 65.50462954 -31.16911524 64.29496588 -40.828125 56.28125 C-47.4743372 49.96943841 -51.5558326 42.18881001 -51.80883789 32.96142578 C-51.9175144 21.02902033 -49.44121984 13.46490616 -41.03125 4.609375 C-29.58188595 -5.4177078 -13.4107393 -6.52414345 0 0 Z " transform="translate(751.515625,674.59375)" style="fill: #306C4A;"/><path d="M0 0 C8.51869282 5.89653269 14.02469559 13.76433169 16 24 C17.0517482 35.08091855 14.01950177 44.39491665 7 53 C0.27436156 60.24175458 -8.40258996 63.84016084 -18.1875 64.25 C-27.86184399 64.07381162 -35.8165209 60.41426372 -43 54 C-45.40746325 51.17693257 -47.26786406 48.2756234 -49 45 C-49.33902344 44.37480469 -49.67804688 43.74960937 -50.02734375 43.10546875 C-53.78903483 34.87135234 -52.94530353 24.65655271 -50.0390625 16.27734375 C-46.28105214 8.04080224 -39.65153434 1.48483248 -31.5 -2.375 C-21.33355019 -6.05782352 -9.44938861 -5.24145774 0 0 Z " transform="translate(502,788)" style="fill: #F3F5F4;"/><path d="M0 0 C5.94 0 11.88 0 18 0 C22.25034873 14.60492169 26.22475281 29.26520617 30 44 C33.10764174 35.09005041 35.61533713 26.01255745 38.1875 16.9375 C38.65541383 15.29226505 39.12351123 13.64708229 39.59179688 12.00195312 C40.73032443 8.0019935 41.86507317 4.00098971 43 0 C48.61 0 54.22 0 60 0 C64.29 14.85 68.58 29.7 73 45 C76.96 30.15 80.92 15.3 85 0 C91.27 0 97.54 0 104 0 C96.90226975 22.08589259 89.66607119 44.10420818 82 66 C76.39 66 70.78 66 65 66 C60.2537234 52.10845874 56.02931154 38.11517077 52 24 C49.61143442 27.58284837 48.61307397 31.22696104 47.43359375 35.31640625 C47.19463882 36.12867172 46.9556839 36.94093719 46.70948792 37.77781677 C45.9473259 40.37132345 45.19207362 42.96677634 44.4375 45.5625 C43.67824252 48.1614506 42.91753547 50.75996275 42.15480042 53.3578949 C41.68062556 54.97430295 41.20866657 56.59136299 40.73912048 58.2091217 C39.11097869 63.77804263 39.11097869 63.77804263 38 66 C32.39 66 26.78 66 21 66 C17.62541053 58.12595791 17.62541053 58.12595791 16.65307617 55.00268555 C16.43241989 54.30052414 16.21176361 53.59836273 15.98442078 52.87492371 C15.75624161 52.13631607 15.52806244 51.39770844 15.29296875 50.63671875 C14.92115227 49.45043633 14.92115227 49.45043633 14.54182434 48.2401886 C13.75359559 45.72368983 12.97021868 43.20571747 12.1875 40.6875 C11.16238644 37.39903935 10.13465964 34.11140542 9.10546875 30.82421875 C8.85304413 30.01556366 8.60061951 29.20690857 8.34054565 28.37374878 C6.26831395 21.76861818 4.08384741 15.20376156 1.81864929 8.66227722 C0.79284021 5.65159775 0 3.20467671 0 0 Z " transform="translate(194,672)" style="fill: #306C4A;"/><path d="M0 0 C6.13235797 4.85619508 8.84298785 10.49930947 10.43359375 18.0546875 C10.51609375 18.8590625 10.59859375 19.6634375 10.68359375 20.4921875 C5.3033235 21.68307736 0.23067991 22.7841394 -5.31640625 22.4921875 C-5.6103125 21.69554687 -5.6103125 21.69554687 -5.91015625 20.8828125 C-7.99875286 15.94940328 -10.03202357 13.15869775 -15.03125 11.046875 C-20.35637752 9.75427994 -25.36029027 10.63638676 -30.31640625 12.8046875 C-33.46786198 15.46372827 -34.15097994 17.38146799 -34.75390625 21.4296875 C-34.29252419 24.6593619 -33.58253058 25.98889099 -31.23608398 28.2097168 C-26.7521146 31.2053026 -21.24662573 32.39409695 -16.12890625 33.9296875 C5.15602816 40.35116526 5.15602816 40.35116526 10.24609375 47.6796875 C13.79091031 54.61519816 13.99971792 62.92880371 11.84765625 70.390625 C8.26518025 78.20475051 2.69987331 83.44618404 -5.12890625 86.9296875 C-15.51003746 90.27423605 -28.98602359 90.22679933 -39.015625 85.828125 C-45.30939763 82.17367638 -50.45684898 77.56370732 -53.00390625 70.6171875 C-53.44670991 67.60612262 -53.31640625 64.53563732 -53.31640625 61.4921875 C-45.39640625 60.9971875 -45.39640625 60.9971875 -37.31640625 60.4921875 C-36.65640625 62.4721875 -35.99640625 64.4521875 -35.31640625 66.4921875 C-32.46662549 70.15619134 -29.81727688 71.47312245 -25.31640625 72.4921875 C-18.35242909 73.21654279 -13.32063066 72.16167044 -7.44140625 68.2421875 C-5.54639047 65.29438517 -5.31640625 62.96552037 -5.31640625 59.4921875 C-9.87647323 52.73070888 -18.54130756 51.05493698 -25.91870117 48.68798828 C-35.66088857 45.54049369 -44.52667292 42.45203712 -50.31640625 33.4921875 C-53.4632071 27.01411816 -53.53607357 19.47788605 -51.44140625 12.6328125 C-47.53889406 4.16025314 -41.87896287 -0.189294 -33.4296875 -3.74609375 C-22.33469568 -7.7452128 -9.86488375 -6.42132399 0 0 Z " transform="translate(177.31640625,650.5078125)" style="fill: #306C4A;"/><path d="M0 0 C3.9375 0.625 3.9375 0.625 6.15184784 2.70623779 C8.39495729 6.37274309 8.44046856 8.66440475 8.44543457 12.95019531 C8.45479451 14.04162024 8.45479451 14.04162024 8.46434355 15.15509415 C8.48027176 17.58810279 8.46767072 20.0201093 8.45507812 22.453125 C8.46049935 24.19942814 8.46762201 25.9457267 8.47631836 27.6920166 C8.49455469 32.43168856 8.48748291 37.17101226 8.47480202 41.91069031 C8.46467597 46.87048278 8.4740666 51.83024542 8.48034668 56.79003906 C8.48762423 65.11919509 8.47803254 73.44820926 8.45898438 81.77734375 C8.43721544 91.40739943 8.44426673 101.03711637 8.46629 110.66716385 C8.48444091 118.93481979 8.48700382 127.20237375 8.47653532 135.47004318 C8.4702987 140.40818586 8.46946942 145.34616931 8.48268127 150.28430176 C8.49423465 154.92685302 8.48622346 159.56896749 8.46310425 164.21147156 C8.45781441 165.91545384 8.45933566 167.61947288 8.46815491 169.32344055 C8.47908361 171.64939177 8.46538091 173.97394274 8.44543457 176.29980469 C8.44392647 177.60133484 8.44241837 178.90286499 8.44086456 180.24383545 C7.85476449 184.18074508 6.73339887 185.84482486 3.9375 188.625 C1.19301049 189.4880133 -1.26926192 189.2616518 -4.0625 188.625 C-6.49369623 186.75484906 -7.70319173 185.34361655 -9.0625 182.625 C-9.1679897 180.31801808 -9.20647779 178.00790327 -9.21640015 175.6985321 C-9.2207824 174.97756232 -9.22516465 174.25659253 -9.2296797 173.51377517 C-9.24308868 171.08559688 -9.24925123 168.65745489 -9.25537109 166.22924805 C-9.26327036 164.49324376 -9.27153919 162.75724113 -9.28015137 161.02124023 C-9.30638993 155.30974907 -9.32167995 149.5982505 -9.3359375 143.88671875 C-9.34129626 141.92238675 -9.34667376 139.95805481 -9.35206985 137.99372292 C-9.37370048 129.82448684 -9.39243837 121.65525276 -9.40369225 113.48599529 C-9.4199391 101.76841909 -9.45313265 90.05117409 -9.51009309 78.33372277 C-9.54875704 70.1001267 -9.56832068 61.86661936 -9.57361281 53.63293487 C-9.57727089 48.71253889 -9.5893406 43.79249602 -9.62171555 38.8721981 C-9.65173418 34.24363732 -9.65813031 29.61564444 -9.64633179 24.98700714 C-9.64611054 23.28783619 -9.65445815 21.58863936 -9.67198563 19.88955879 C-9.69461387 17.56982519 -9.68641429 15.25216205 -9.67050171 12.93241882 C-9.67381186 11.63436656 -9.677122 10.3363143 -9.68053246 8.99892712 C-8.74747847 3.90525262 -5.48186972 -0.10898349 0 0 Z " transform="translate(609.0625,285.375)" style="fill: #2F6A49;"/><path d="M0 0 C6.75189186 4.41469852 10.38694171 11.04067511 13.375 18.375 C14.26063952 23.51170921 14 28.78750167 14 34 C-1.51 34 -17.02 34 -33 34 C-30.34578632 42.93516585 -30.34578632 42.93516585 -24 48 C-18.45673169 49.76120134 -12.88487711 49.82249183 -7.5625 47.5 C-6.716875 47.005 -5.87125 46.51 -5 46 C-4.34 46 -3.68 46 -3 46 C-2.731875 45.360625 -2.46375 44.72125 -2.1875 44.0625 C-1 42 -1 42 2 41 C4.69921875 41.99609375 4.69921875 41.99609375 7.6875 43.4375 C8.68136719 43.91058594 9.67523437 44.38367188 10.69921875 44.87109375 C11.45847656 45.24363281 12.21773437 45.61617187 13 46 C8.91903654 54.33196706 2.80602173 60.18604556 -6.02734375 63.33984375 C-14.40908742 65.20122966 -24.34398406 65.51376821 -32.046875 61.32421875 C-40.9597317 55.28130191 -46.50105366 48.58764109 -49 38 C-49.99258819 28.97686937 -50.10420382 19.79146378 -45 12 C-44.57589844 11.30648437 -44.15179687 10.61296875 -43.71484375 9.8984375 C-33.94653065 -4.63158812 -15.18270902 -8.51918673 0 0 Z " transform="translate(888,675)" style="fill: #306C4A;"/><path d="M0 0 C6.30549926 5.00417671 11.0080247 12.7056178 11.98046875 20.8046875 C12.30759372 29.37284546 10.24899539 36.74741157 5.09765625 43.69921875 C0.04074146 49.12728325 -6.84894844 53.17890514 -14.33203125 53.765625 C-25.30005326 53.99263199 -32.38107023 52.08457352 -40.5 44.59765625 C-45.7632563 38.5202579 -48.6334441 31.03812539 -48.50390625 23.05859375 C-47.83632351 15.04760091 -44.9659118 8.24940319 -39.29296875 2.52734375 C-27.24867429 -7.18579695 -13.28373082 -8.53145915 0 0 Z " transform="translate(700.29296875,551.47265625)" style="fill: #F1F2F1;"/><path d="M0 0 C4.02076085 0.92142436 5.40532278 2.5160692 8 5.6875 C8.62641239 8.80316925 8.62641239 8.80316925 8.62818909 12.36730957 C8.63883067 13.35460391 8.63883067 13.35460391 8.64968723 14.36184359 C8.66724409 16.56018833 8.64917731 18.75675935 8.63110352 20.95507812 C8.6362433 22.53389795 8.64352502 24.11271204 8.65278625 25.69151306 C8.6713013 29.97469007 8.65836134 34.25724463 8.63869596 38.54039574 C8.62230886 43.02372333 8.63112243 47.50701152 8.63621521 51.99035645 C8.64073611 59.51922548 8.62486664 67.04784606 8.59692383 74.57666016 C8.56487188 83.27970219 8.56488763 91.98229612 8.5821386 100.68536997 C8.59800511 109.0591382 8.59126935 117.43274224 8.57420158 125.8065033 C8.56733088 129.36942417 8.56836371 132.93221343 8.57574654 136.49513245 C8.58341053 140.69121917 8.57127991 144.88679627 8.54389763 149.0827961 C8.53701385 150.62228953 8.5369158 152.16183056 8.54411316 153.70132256 C8.55281044 155.80401292 8.53685067 157.90513142 8.5146637 160.00769043 C8.51185678 161.18385674 8.50904985 162.36002304 8.50615788 163.57183075 C7.89603684 167.3274482 6.64568289 169.00239761 4 171.6875 C2 172.3515625 2 172.3515625 0 172.3125 C-0.66 172.32539063 -1.32 172.33828125 -2 172.3515625 C-5.13369322 171.31107842 -6.20052124 169.39845681 -8 166.6875 C-8.50615788 163.59024143 -8.50615788 163.59024143 -8.5146637 160.05238342 C-8.52160922 159.39897632 -8.52855475 158.74556921 -8.53571075 158.07236189 C-8.55395705 155.89041983 -8.54372418 153.70956801 -8.53344727 151.52758789 C-8.54050703 149.96024259 -8.54925229 148.39290412 -8.55955505 146.82557678 C-8.58205314 142.57342773 -8.57910836 138.32165082 -8.57023358 134.06946492 C-8.56512256 130.51821983 -8.57241721 126.9670446 -8.57970566 123.41580671 C-8.59670612 115.03731486 -8.59313752 106.65900513 -8.57641602 98.28051758 C-8.55949428 89.63993152 -8.57532943 80.99985063 -8.6076389 72.35931975 C-8.63433878 64.93749253 -8.64160974 57.51582254 -8.63312382 50.09395212 C-8.62819575 45.6626546 -8.63040353 41.23166103 -8.65091133 36.80040169 C-8.66927484 32.63298275 -8.66330216 28.46629011 -8.63871193 24.29891014 C-8.63370607 22.77111294 -8.63718808 21.24326035 -8.64986038 19.71550751 C-8.74897702 6.73764461 -8.74897702 6.73764461 -5.64805603 2.77488708 C-3 0.6875 -3 0.6875 0 0 Z " transform="translate(694,300.3125)" style="fill: #316D4A;"/><path d="M0 0 C7.01004047 3.56651182 10.7610643 7.58623254 13.5625 14.8125 C14.44891214 17.80502619 14.68440384 20.46426993 14.67602539 23.58105469 C14.67594986 24.52172791 14.67587433 25.46240112 14.67579651 26.43157959 C14.67063522 27.43900208 14.66547394 28.44642456 14.66015625 29.484375 C14.6587413 30.52192932 14.65732635 31.55948364 14.65586853 32.628479 C14.65027447 35.93984876 14.63772303 39.25115071 14.625 42.5625 C14.61998423 44.80859277 14.61542146 47.05468661 14.61132812 49.30078125 C14.60030698 54.80471359 14.58304639 60.3085953 14.5625 65.8125 C8.9525 65.8125 3.3425 65.8125 -2.4375 65.8125 C-2.467229 63.89787964 -2.467229 63.89787964 -2.49755859 61.94458008 C-2.57372663 57.20138074 -2.662427 52.45848368 -2.75488281 47.71557617 C-2.79312625 45.66420466 -2.82798719 43.61276716 -2.859375 41.5612793 C-2.90512602 38.60962362 -2.96310422 35.65842047 -3.0234375 32.70703125 C-3.03498871 31.79226517 -3.04653992 30.87749908 -3.05844116 29.93501282 C-3.18039226 24.65356619 -3.38912989 20.30616796 -6.875 16.0625 C-10.24601656 13.36568675 -14.03025755 13.48039382 -18.1484375 13.52734375 C-21.70394424 13.97026524 -23.78588108 15.48424924 -26.4375 17.8125 C-28.21534403 20.71230384 -28.69808659 22.92652198 -28.75634766 26.30566406 C-28.77621735 27.18627502 -28.79608704 28.06688599 -28.81655884 28.97418213 C-28.83388565 30.38688385 -28.83388565 30.38688385 -28.8515625 31.828125 C-28.87092865 32.79909119 -28.8902948 33.77005737 -28.9102478 34.77044678 C-28.96996509 37.86770886 -29.0163978 40.96500826 -29.0625 44.0625 C-29.10068698 46.16407859 -29.13973914 48.26564165 -29.1796875 50.3671875 C-29.27566031 55.51549868 -29.3597206 60.66388312 -29.4375 65.8125 C-35.0475 65.8125 -40.6575 65.8125 -46.4375 65.8125 C-46.4375 44.0325 -46.4375 22.2525 -46.4375 -0.1875 C-41.1575 -0.1875 -35.8775 -0.1875 -30.4375 -0.1875 C-30.4375 2.1225 -30.4375 4.4325 -30.4375 6.8125 C-29.7775 6.8125 -29.1175 6.8125 -28.4375 6.8125 C-28.1075 5.8225 -27.7775 4.8325 -27.4375 3.8125 C-19.4884527 -2.21722605 -9.36083724 -3.09641461 0 0 Z " transform="translate(380.4375,672.1875)" style="fill: #2F6A48;"/><path d="M0 0 C4.88560783 2.86622326 8.52063546 6.00226976 11.05078125 11.203125 C11.05078125 11.863125 11.05078125 12.523125 11.05078125 13.203125 C9.64624482 14.09746657 8.22656256 14.96805692 6.80078125 15.828125 C6.011875 16.31539062 5.22296875 16.80265625 4.41015625 17.3046875 C2.05078125 18.203125 2.05078125 18.203125 -0.12890625 17.4765625 C-1.94921875 16.203125 -1.94921875 16.203125 -3.82421875 14.203125 C-7.44849869 10.792038 -10.95147094 10.28358853 -15.82421875 9.890625 C-21.65279689 10.06893714 -26.2236251 11.82265008 -30.76171875 15.453125 C-35.77155437 21.75120406 -36.5699806 27.01542714 -36.359375 34.97265625 C-35.53815349 41.44075326 -32.87540075 45.48631061 -28.07421875 49.765625 C-22.36323461 52.50135029 -15.05954492 52.09956983 -8.94921875 51.203125 C-4.88611604 49.03996549 -2.41265309 47.19566578 -0.57421875 42.953125 C-0.03796875 41.715625 0.49828125 40.478125 1.05078125 39.203125 C-4.55921875 39.203125 -10.16921875 39.203125 -15.94921875 39.203125 C-15.94921875 35.573125 -15.94921875 31.943125 -15.94921875 28.203125 C-6.04921875 28.203125 3.85078125 28.203125 14.05078125 28.203125 C14.05078125 49.18773555 14.05078125 49.18773555 7.05859375 56.6015625 C-1.55370411 63.47129425 -11.13810273 66.05414579 -21.94921875 65.203125 C-31.88145098 63.41107087 -39.66718543 58.61920509 -45.66015625 50.5234375 C-49.17660665 44.19382677 -50.48366536 38.48430067 -50.38671875 31.265625 C-50.37914551 30.47365723 -50.37157227 29.68168945 -50.36376953 28.86572266 C-50.19495386 22.88570483 -49.3086218 18.25272771 -45.94921875 13.203125 C-45.53671875 12.51089844 -45.12421875 11.81867187 -44.69921875 11.10546875 C-35.37131704 -3.07188185 -14.97351685 -7.14702317 0 0 Z " transform="translate(404.94921875,786.796875)" style="fill: #F2F4F3;"/><path d="M0 0 C3.7725201 2.03286057 6.70531931 4.42767555 9.76171875 7.40625 C12.51290812 9.86154486 14.25946608 10.49560022 17.94921875 10.53125 C19.74322332 10.41774045 21.53511529 10.26823674 23.32421875 10.09375 C25.0721875 9.97193359 25.0721875 9.97193359 26.85546875 9.84765625 C30.01483905 9.62443987 33.1691754 9.3706817 36.32421875 9.09375 C36.81921875 10.57875 36.81921875 10.57875 37.32421875 12.09375 C28.77573201 21.46950965 17.31094139 27.54995513 4.61547852 28.64257812 C-8.79245203 29.96396729 -18.94450244 38.75990845 -29.42358398 46.58081055 C-31.67578125 48.09375 -31.67578125 48.09375 -33.67578125 48.09375 C-33.44761719 48.69703125 -33.21945312 49.3003125 -32.984375 49.921875 C-32.69691406 50.72109375 -32.40945313 51.5203125 -32.11328125 52.34375 C-31.82324219 53.13265625 -31.53320312 53.9215625 -31.234375 54.734375 C-30.63055288 57.28478452 -30.82838805 58.64697229 -31.67578125 61.09375 C-39.73957867 51.22076726 -45.64961042 42.30121046 -45.1171875 29.0078125 C-43.79027184 20.24782064 -38.19391724 12.85569701 -31.67578125 7.09375 C-21.96420007 0.52487593 -11.84156769 -4.01057475 0 0 Z " transform="translate(444.67578125,111.90625)" style="fill: #F5F7F6;"/><path d="M0 0 C5.94 0 11.88 0 18 0 C21.84220294 9.23247795 25.03436991 18.66164154 28.25 28.125 C28.80965611 29.76570679 29.36955007 31.40633247 29.9296875 33.046875 C31.28920167 37.03032038 32.64549458 41.01484884 34 45 C37.89139066 35.79346845 41.03641151 26.33235021 44.25 16.875 C44.80965611 15.23429321 45.36955007 13.59366753 45.9296875 11.953125 C47.2896434 7.9698222 48.64470657 3.98490364 50 0 C55.94 0 61.88 0 68 0 C66.03622589 6.75127323 63.85607188 13.3458269 61.3828125 19.92578125 C60.87426224 21.2899543 60.87426224 21.2899543 60.35543823 22.6816864 C59.28160706 25.55974827 58.20331175 28.43611431 57.125 31.3125 C56.40987766 33.22841166 55.69503182 35.14442656 54.98046875 37.06054688 C51.37166724 46.72726982 47.72613052 56.3778159 44 66 C37.73 66 31.46 66 25 66 C22.30471002 60.05309685 19.81698652 54.08634422 17.5390625 47.96875 C17.22601166 47.13396118 16.91296082 46.29917236 16.59042358 45.43908691 C15.93201733 43.68156188 15.27493997 41.92353849 14.61914062 40.16503906 C13.63740695 37.53325989 12.65109826 34.90323207 11.6640625 32.2734375 C7.65085885 21.55746644 3.77599266 10.80191089 0 0 Z " transform="translate(769,672)" style="fill: #306C4A;"/><path d="M0 0 C0.33 1.65 0.66 3.3 1 5 C-10.01737846 10.65450747 -21.1993414 15.88826832 -32.46875 21.01953125 C-39.24445907 24.10526454 -45.99883541 27.23599537 -52.75 30.375 C-53.91805176 30.91785645 -55.08610352 31.46071289 -56.28955078 32.02001953 C-58.66870997 33.12594534 -61.04777866 34.23206587 -63.42675781 35.33837891 C-69.32542378 38.08136337 -75.22501984 40.82234357 -81.125 43.5625 C-82.26453125 44.09174072 -83.4040625 44.62098145 -84.578125 45.16625977 C-96.70939961 50.79777762 -108.85344331 56.40153049 -121 62 C-120.50628906 62.97582031 -120.01257813 63.95164063 -119.50390625 64.95703125 C-118.85666469 66.24213405 -118.20953512 67.52729325 -117.5625 68.8125 C-117.23701172 69.45509766 -116.91152344 70.09769531 -116.57617188 70.75976562 C-113.90306458 76.07842241 -112.80708502 79.92092503 -112.6875 85.875 C-112.65011719 87.08929688 -112.61273438 88.30359375 -112.57421875 89.5546875 C-113.07342412 93.59412912 -114.15991376 95.14949143 -117 98 C-120.69088207 100.03969799 -123.81992127 100.51184637 -128 100 C-133.22860737 97.17655202 -136.8442242 93.85837026 -139.08984375 88.3046875 C-140.11444542 84.58445999 -140.30074403 81.35595721 -140.3125 77.5 C-140.33763672 75.59734375 -140.33763672 75.59734375 -140.36328125 73.65625 C-139.82232027 68.21173948 -138.03780013 64.73804521 -134.10546875 61.00390625 C-129.06766214 56.95287294 -123.18078725 54.54634695 -117.3125 51.9375 C-116.06780097 51.37362683 -114.82367079 50.8084965 -113.58007812 50.2421875 C-111.00167671 49.06919835 -108.42093728 47.90159954 -105.83837891 46.73779297 C-99.86896178 44.04226065 -93.93663612 41.2667669 -88 38.5 C-85.6590388 37.41236294 -83.31789254 36.32512409 -80.9765625 35.23828125 C-79.8205957 34.70154785 -78.66462891 34.16481445 -77.47363281 33.61181641 C-74.05345618 32.02480445 -70.63233332 30.43985034 -67.2109375 28.85546875 C-57.10377865 24.17259847 -47.00242628 19.47864504 -36.92578125 14.73046875 C-36.15697632 14.36823715 -35.38817139 14.00600555 -34.59606934 13.63279724 C-30.82327379 11.85461224 -27.05141526 10.07447056 -23.28076172 8.29174805 C-21.89942046 7.63979764 -20.5180731 6.98786017 -19.13671875 6.3359375 C-18.51807449 6.04273117 -17.89943024 5.74952484 -17.26203918 5.44743347 C-4.78756315 -0.43523301 -4.78756315 -0.43523301 0 0 Z " transform="translate(399,172)" style="fill: #F3F5F4;"/><path d="M0 0 C0 5.61 0 11.22 0 17 C-1.835625 17.0825 -3.67125 17.165 -5.5625 17.25 C-11.19297492 17.7346989 -14.55123692 18.49778226 -19 22 C-22.23389454 27.04133804 -22.46666388 31.32055316 -22.51171875 37.1171875 C-22.52966995 37.97434357 -22.54762115 38.83149963 -22.56611633 39.71463013 C-22.62001405 42.43470436 -22.65404858 45.1546052 -22.6875 47.875 C-22.72069126 49.72658652 -22.75518259 51.57815022 -22.79101562 53.4296875 C-22.87572852 57.95299948 -22.9426372 62.47626186 -23 67 C-28.28 67 -33.56 67 -39 67 C-39 45.22 -39 23.44 -39 1 C-34.05 1 -29.1 1 -24 1 C-23.34 3.31 -22.68 5.62 -22 8 C-21.154375 7.236875 -20.30875 6.47375 -19.4375 5.6875 C-13.22881973 0.58129567 -7.8152546 -0.36070406 0 0 Z " transform="translate(621,671)" style="fill: #306D4A;"/><path d="M0 0 C13.86 0 27.72 0 42 0 C42 3.96 42 7.92 42 12 C22.03189066 12.18451025 22.03189066 12.18451025 13 11 C13 16.61 13 22.22 13 28 C21.25 28 29.5 28 38 28 C38 31.3 38 34.6 38 38 C29.75 38 21.5 38 13 38 C13 46.91 13 55.82 13 65 C8.71 65 4.42 65 0 65 C0 43.55 0 22.1 0 0 Z " transform="translate(624,785)" style="fill: #F4F6F4;"/><path d="M0 0 C5.23724692 2.96387807 8.8638854 7.84165621 10.75 13.5 C11.39095286 21.18092686 11.61436497 28.18380918 6.75 34.5 C2.93110182 38.58046655 -1.30405577 41.08166711 -6.86328125 41.87109375 C-13.67980108 42.03879395 -18.04614863 41.00262317 -23.25 36.5 C-29.06231143 30.22882187 -29.71205166 25.41209983 -29.5546875 16.984375 C-29.05249117 11.24130928 -27.56818947 7.62228614 -23.30859375 3.72265625 C-16.32160292 -1.74598298 -8.45401225 -3.6976123 0 0 Z " transform="translate(493.25,797.5)" style="fill: #010201;"/><path d="M0 0 C2.16296387 1.56738281 2.16296387 1.56738281 4 4 C4.39482906 6.71379746 4.547765 9.0225121 4.51757812 11.734375 C4.5245874 12.50881958 4.53159668 13.28326416 4.53881836 14.08117676 C4.55640499 16.63781732 4.54477389 19.19334844 4.53125 21.75 C4.53394474 23.52832247 4.53782701 25.30664351 4.54284668 27.08496094 C4.54874261 30.81068968 4.54017587 34.53603464 4.52148438 38.26171875 C4.49869459 43.03699287 4.51181719 47.81136776 4.53577423 52.58660889 C4.55022975 56.25836968 4.54562739 59.92991735 4.53526306 63.60168457 C4.53259508 65.36234646 4.53586804 67.12302771 4.54518127 68.88366699 C4.55534308 71.34484087 4.53985253 73.8045595 4.51757812 76.265625 C4.52567505 76.9930188 4.53377197 77.7204126 4.54211426 78.46984863 C4.48438774 81.91344188 4.23622667 83.69654133 2.09265137 86.45019531 C-0.17783069 88.13170031 -1.21033418 88.54358853 -4 88.5 C-4.66 88.5103125 -5.32 88.520625 -6 88.53125 C-9.00095582 87.73412111 -10.09589153 86.44603297 -12 84 C-12.39482906 81.28620254 -12.547765 78.9774879 -12.51757812 76.265625 C-12.5245874 75.49118042 -12.53159668 74.71673584 -12.53881836 73.91882324 C-12.55640499 71.36218268 -12.54477389 68.80665156 -12.53125 66.25 C-12.53394474 64.47167753 -12.53782701 62.69335649 -12.54284668 60.91503906 C-12.54874261 57.18931032 -12.54017587 53.46396536 -12.52148438 49.73828125 C-12.49869459 44.96300713 -12.51181719 40.18863224 -12.53577423 35.41339111 C-12.55022975 31.74163032 -12.54562739 28.07008265 -12.53526306 24.39831543 C-12.53259508 22.63765354 -12.53586804 20.87697229 -12.54518127 19.11633301 C-12.55534308 16.65515913 -12.53985253 14.1954405 -12.51757812 11.734375 C-12.52567505 11.0069812 -12.53377197 10.2795874 -12.54211426 9.53015137 C-12.48451381 6.09407882 -12.248229 4.31506416 -10.09265137 1.57910156 C-6.3483178 -1.246349 -4.55922125 -1.18539752 0 0 Z " transform="translate(571,332)" style="fill: #306C4A;"/><path d="M0 0 C2.90300603 2.26797346 5.66739265 4.70116832 8 7.5625 C8 8.2225 8 8.8825 8 9.5625 C5.5 11.1875 5.5 11.1875 3 12.5625 C3.66 13.2225 4.32 13.8825 5 14.5625 C4.835 15.18125 4.67 15.8 4.5 16.4375 C3.85296856 19.18738363 4.73893473 20.11918605 6 22.5625 C5.505 24.0475 5.505 24.0475 5 25.5625 C5.0825 26.7175 5.165 27.8725 5.25 29.0625 C5 32.5625 5 32.5625 3 34.375 C-5.5049197 37.74153072 -13.97066352 38.11573596 -23 38.5625 C-23.25652344 37.93601563 -23.51304687 37.30953125 -23.77734375 36.6640625 C-25.94456945 31.71691526 -25.94456945 31.71691526 -30.125 28.66015625 C-31.67113659 28.38592594 -33.22408522 28.14774392 -34.78125 27.9453125 C-38.15692795 27.36288919 -40.37148872 25.67813103 -43 23.5625 C-45.15502531 20.32996204 -45.46856135 19.31099077 -45 15.5625 C-43.76171875 13.890625 -43.76171875 13.890625 -42 12.5625 C-39.84375 12.453125 -39.84375 12.453125 -37.5 12.8125 C-36.7265625 12.92078125 -35.953125 13.0290625 -35.15625 13.140625 C-33 13.5625 -33 13.5625 -30 14.5625 C-28.14038586 10.3119534 -27.06795435 6.06316475 -26 1.5625 C-25.30777344 1.72234375 -24.61554688 1.8821875 -23.90234375 2.046875 C-15.827549 3.48142804 -6.32121118 -1.38276495 0 0 Z " transform="translate(468,145.4375)" style="fill: #F5F6F5;"/><path d="M0 0 C4.62 0 9.24 0 14 0 C14.33 17.49 14.66 34.98 15 53 C23.91 52.67 32.82 52.34 42 52 C42.495 58.435 42.495 58.435 43 65 C28.81 65 14.62 65 0 65 C0 43.55 0 22.1 0 0 Z " transform="translate(550,785)" style="fill: #F6F7F6;"/><path d="M0 0 C3.66666124 3.73480706 4.50451459 6.17862056 4.53344727 11.36328125 C4.5492836 12.62809326 4.56511993 13.89290527 4.58143616 15.19604492 C4.57759471 16.56820038 4.57255568 17.94035294 4.56640625 19.3125 C4.57164463 20.72827564 4.5779219 22.14404778 4.58518982 23.55981445 C4.59558101 26.52214013 4.59105116 29.48398504 4.57641602 32.44628906 C4.55922095 36.23632491 4.58273617 40.02484569 4.61790562 43.81471252 C4.63989977 46.73679586 4.63843367 49.65851767 4.6301403 52.58065796 C4.62932202 53.97766788 4.63616201 55.37470467 4.65091133 56.77163696 C4.66839097 58.72659723 4.65047518 60.68177631 4.63110352 62.63671875 C4.62966087 64.30287231 4.62966087 64.30287231 4.62818909 66.00268555 C3.79327481 69.98635969 2.14385898 71.49559693 -1 74 C-4.5625 74.5625 -4.5625 74.5625 -8 74 C-10.36497439 72.13291495 -11.66030715 70.67938569 -13 68 C-13.1066325 66.05581064 -13.14884461 64.10796129 -13.16113281 62.16088867 C-13.17074036 60.93589157 -13.1803479 59.71089447 -13.19024658 58.44877625 C-13.19509493 57.10517564 -13.19937367 55.76157287 -13.203125 54.41796875 C-13.20887734 53.04275002 -13.21463507 51.66753131 -13.22039795 50.29231262 C-13.23090877 47.40637844 -13.23675058 44.52047212 -13.24023438 41.63452148 C-13.24571286 37.9423261 -13.26972623 34.25050066 -13.29820633 30.55842113 C-13.31686286 27.71620115 -13.32203995 24.87406963 -13.32357025 22.03179359 C-13.32659161 20.67106419 -13.33460273 19.31033616 -13.34775543 17.94966698 C-13.36487345 16.04228424 -13.36108255 14.13474884 -13.35644531 12.22729492 C-13.36191376 10.60086311 -13.36191376 10.60086311 -13.36749268 8.9415741 C-12.94826731 5.58590863 -11.99577846 3.70627909 -10 1 C-6.86599115 -0.56700442 -3.36844905 -0.85164561 0 0 Z " transform="translate(740,351)" style="fill: #306B49;"/><path d="M0 0 C4.48920611 3.69324758 6.62035794 8.62233897 7.46875 14.30078125 C7.74807969 21.03960999 6.08507417 26.54990729 1.875 31.8125 C-2.66555601 35.42430592 -6.59903891 37.33981413 -12.4375 36.9375 C-18.21994141 36.0130961 -21.6577465 33.61203842 -25.1875 28.9375 C-28.66085364 22.8912918 -28.59280813 16.82320982 -27.875 10 C-25.91634097 4.81483625 -22.53974254 0.99021958 -17.875 -2 C-12.02109485 -3.91425169 -5.23820256 -3.28094761 0 0 Z " transform="translate(667.875,688)" style="fill: #000101;"/><path d="M0 0 C4.20328938 2.77238235 7.66979118 6.40208236 9.9375 10.9375 C10.0876182 13.35093878 10.1590537 15.7695643 10.1875 18.1875 C10.21328125 19.49203125 10.2390625 20.7965625 10.265625 22.140625 C9.78512156 27.70073629 8.0842132 30.81626931 4.125 34.6875 C-0.97603595 38.28823126 -4.99602332 39.47989884 -11.109375 38.4765625 C-16.48435252 36.9930687 -19.97313478 33.39991643 -23.0625 28.9375 C-24.20580513 25.50758462 -24.26631651 22.7388584 -24.3125 19.125 C-24.35117187 17.32095703 -24.35117187 17.32095703 -24.390625 15.48046875 C-23.8870749 10.0433266 -22.10108019 6.93092453 -18.1875 3.1875 C-12.266704 -1.07547312 -7.12146536 -2.47071247 0 0 Z " transform="translate(741.0625,686.0625)" style="fill: #000100;"/><path d="M0 0 C5.28 0 10.56 0 16 0 C16 21.78 16 43.56 16 66 C10.72 66 5.44 66 0 66 C0 44.22 0 22.44 0 0 Z " transform="translate(305,672)" style="fill: #306E4B;"/><path d="M0 0 C4.53846883 5.5858078 5.36405607 10.38062277 5.28125 17.3984375 C4.69046472 22.86320137 2.3699807 26.69684763 -1.5625 30.4375 C-6.44935135 33.57009702 -11.35914879 33.62480567 -17 33 C-21.88478796 30.64806505 -24.36061943 27.69223213 -27 23 C-28.87473155 16.95086618 -29.00076735 10.41344664 -26.3125 4.625 C-24.06310452 0.69054501 -21.39980965 -2.04007614 -17.125 -3.75 C-10.38595774 -4.5428285 -5.56882626 -3.94660296 0 0 Z " transform="translate(449,689)" style="fill: #000100;"/><path d="M0 0 C0.66 0.66 1.32 1.32 2 2 C1.0821875 2.17015625 0.164375 2.3403125 -0.78125 2.515625 C-12.74354645 4.43525507 -12.74354645 4.43525507 -21.875 11.625 C-27.34149263 28.02447788 -26.4523667 45.79466986 -18.9765625 61.3984375 C-15.33298369 68.58883487 -11.16991126 75.38762978 -6.7578125 82.12890625 C-1.24025896 91.14091036 4.60142331 101.66912244 7 112 C6.505 113.485 6.505 113.485 6 115 C5.39414062 113.87464844 4.78828125 112.74929688 4.1640625 111.58984375 C0.05968883 104.04157033 -4.09524099 96.60340627 -8.9375 89.5 C-35.88205865 49.93934925 -35.88205865 49.93934925 -33 34 C-32.34288484 30.61988005 -31.57363202 27.28062749 -30.75 23.9375 C-30.55792969 23.09123047 -30.36585938 22.24496094 -30.16796875 21.37304688 C-28.06561133 12.79833754 -24.38196314 6.01973494 -17 1 C-11.35834692 -1.38685323 -5.91926627 -1.34184464 0 0 Z " transform="translate(437,188)" style="fill: #F2F3F2;"/><path d="M0 0 C6.51044316 3.85804039 6.37126574 6.11379721 9 14 C-1.23 14 -11.46 14 -22 14 C-18.61529548 4.97412128 -18.61529548 4.97412128 -15.5 2.5625 C-14.61828125 1.85287109 -14.61828125 1.85287109 -13.71875 1.12890625 C-9.2958134 -1.77615893 -4.92169304 -1.19466737 0 0 Z " transform="translate(877,684)" style="fill: #000201;"/><path d="M0 0 C2.70567626 1.82339052 4.53728718 3.07457436 6 6 C6.3751455 10.97067782 6.15878799 14.05151502 3 18 C-0.21522137 20.32826375 -3.10830425 20.39711181 -7 20 C-10.49406769 18.33237678 -11.82670681 17.25993978 -14 14 C-14.76579737 7.32662295 -14.76579737 7.32662295 -12.94921875 4.1796875 C-8.6909186 -1.02071445 -6.47336271 -1.42633416 0 0 Z " transform="translate(317,643)" style="fill: #316E4B;"/><path d="M0 0 C2 2 2 2 2.24050903 4.02481079 C2.2338472 5.27057388 2.2338472 5.27057388 2.22705078 6.54150391 C2.22689972 7.48232819 2.22674866 8.42315247 2.22659302 9.39248657 C2.21627045 10.41023163 2.20594788 11.42797668 2.1953125 12.4765625 C2.1924826 13.51694672 2.18965271 14.55733093 2.18673706 15.62924194 C2.17551704 18.96127694 2.15040915 22.29304586 2.125 25.625 C2.11497256 27.88020446 2.1058463 30.13541312 2.09765625 32.390625 C2.07557174 37.92718629 2.04102946 43.46354799 2 49 C-3.61 49 -9.22 49 -15 49 C-15 34.15 -15 19.3 -15 4 C-12.970332 7.044502 -12.75143699 7.60276328 -12.77294922 11.01245117 C-12.77310028 11.81305466 -12.77325134 12.61365814 -12.77340698 13.43852234 C-12.78372955 14.29798965 -12.79405212 15.15745697 -12.8046875 16.04296875 C-12.8075174 16.9265657 -12.81034729 17.81016266 -12.81326294 18.72053528 C-12.82445903 21.54299454 -12.84956249 24.36513662 -12.875 27.1875 C-12.88503054 29.10090688 -12.89415626 31.01431873 -12.90234375 32.92773438 C-12.92439649 37.61861182 -12.95892238 42.30925213 -13 47 C-8.71 47 -4.42 47 0 47 C0 31.49 0 15.98 0 0 Z " transform="translate(393,689)" style="fill: #347650;"/><path d="M0 0 C0.66 0.66 1.32 1.32 2 2 C1.0821875 2.17015625 0.164375 2.3403125 -0.78125 2.515625 C-10.88851435 4.47486851 -10.88851435 4.47486851 -20 9 C-21.95098881 11.90074931 -21.95098881 11.90074931 -23 15 C-24.22263652 17.51719285 -25.43481832 19.65222748 -27 22 C-27.3379388 25.35799951 -27.44204438 28.69399371 -27.55859375 32.06640625 C-27.70425781 33.03449219 -27.84992188 34.00257813 -28 35 C-28.99 35.66 -29.98 36.32 -31 37 C-31.57748803 38.96361864 -31.57748803 38.96361864 -31.6875 41.125 C-31.790625 42.40375 -31.89375 43.6825 -32 45 C-34 43 -34 43 -34.05566406 41.18969727 C-33.28045346 35.34755881 -32.15963562 29.65921975 -30.75 23.9375 C-30.55792969 23.09123047 -30.36585938 22.24496094 -30.16796875 21.37304688 C-28.06561133 12.79833754 -24.38196314 6.01973494 -17 1 C-11.35834692 -1.38685323 -5.91926627 -1.34184464 0 0 Z " transform="translate(437,188)" style="fill: #EAEBEA;"/><path d="M0 0 C0.33 0 0.66 0 1 0 C1 14.85 1 29.7 1 45 C-3.95 45 -8.9 45 -14 45 C-14 44.34 -14 43.68 -14 43 C-9.71 43 -5.42 43 -1 43 C-1.00523682 41.8039917 -1.01047363 40.6079834 -1.01586914 39.37573242 C-1.03395712 34.94214627 -1.04544595 30.50856339 -1.05493164 26.07495117 C-1.05996315 24.15534924 -1.06678898 22.23575114 -1.07543945 20.31616211 C-1.08755669 17.55842136 -1.09324011 14.80073124 -1.09765625 12.04296875 C-1.10281754 11.18350143 -1.10797882 10.32403412 -1.11329651 9.43852234 C-1.11337204 8.63791885 -1.11344757 7.83731537 -1.11352539 7.01245117 C-1.115746 6.3085173 -1.11796661 5.60458344 -1.12025452 4.87931824 C-1 3 -1 3 0 0 Z " transform="translate(350,693)" style="fill: #33764F;"/><path d="M0 0 C0 3.3 0 6.6 0 10 C-8.25 9.67 -16.5 9.34 -25 9 C-25 8.67 -25 8.34 -25 8 C-17.74 8 -10.48 8 -3 8 C-3 6.02 -3 4.04 -3 2 C-7.95 2 -12.9 2 -18 2 C-18 1.67 -18 1.34 -18 1 C-15.37504621 0.83257698 -12.75004205 0.6660283 -10.125 0.5 C-9.00544922 0.42845703 -9.00544922 0.42845703 -7.86328125 0.35546875 C-2.2265625 0 -2.2265625 0 0 0 Z " transform="translate(662,813)" style="fill: #EAEAE9;"/><path d="M0 0 C0.66 0.66 1.32 1.32 2 2 C-0.43681587 2.50354867 -2.87435439 3.00296756 -5.3125 3.5 C-6.00279297 3.64308594 -6.69308594 3.78617188 -7.40429688 3.93359375 C-10.32524773 4.52625044 -13.01108122 5 -16 5 C-17.33981486 5.3062434 -18.67511887 5.63451555 -20 6 C-19.74609375 4.11328125 -19.74609375 4.11328125 -19 2 C-13.3330436 -1.57573331 -6.33147605 -1.59184559 0 0 Z " transform="translate(437,188)" style="fill: #EFEFEE;"/><path d="M0 0 C2.67695789 4.01543683 1.80730903 7.01507845 1.1875 11.5625 C0.98531418 13.18615277 0.78348904 14.80985049 0.58203125 16.43359375 C0.48100098 17.21718262 0.3799707 18.00077148 0.27587891 18.80810547 C-0.07250895 21.5760932 -0.35730296 24.34814267 -0.625 27.125 C-0.74875 28.40375 -0.8725 29.6825 -1 31 C-1.99 31 -2.98 31 -4 31 C-3.91435791 30.34515625 -3.82871582 29.6903125 -3.74047852 29.015625 C-3.34758755 26.01044688 -2.95504138 23.00522381 -2.5625 20 C-2.42779297 18.97003906 -2.29308594 17.94007813 -2.15429688 16.87890625 C-1.41990403 11.2545318 -0.69687777 5.6291486 0 0 Z " transform="translate(515,388)" style="fill: #E5E6E5;"/><path d="M0 0 C0.61875 0.78375 1.2375 1.5675 1.875 2.375 C4.45243805 5.72081411 4.45243805 5.72081411 8 7.75 C10 9 10 9 11.3125 11.875 C11.98852259 14.94782994 11.87098108 16.10508448 11 19 C9.53763907 17.0862931 8.08005754 15.16924767 6.625 13.25 C6.2125 12.71117187 5.8 12.17234375 5.375 11.6171875 C0 4.50831653 0 4.50831653 0 0 Z " transform="translate(402,154)" style="fill: #EFEFEF;"/><path d="M0 0 C-0.33 0.66 -0.66 1.32 -1 2 C-1.99 2 -2.98 2 -4 2 C-4.20625 2.928125 -4.4125 3.85625 -4.625 4.8125 C-6 8 -6 8 -8.9375 9.9375 C-12 11 -12 11 -15 10 C-13.68 9.67 -12.36 9.34 -11 9 C-11.2475 7.9171875 -11.2475 7.9171875 -11.5 6.8125 C-11 4 -11 4 -9.32421875 2.51953125 C-3.61661774 -1.20553925 -3.61661774 -1.20553925 0 0 Z " transform="translate(350,195)" style="fill: #F7F8F8;"/><path d="M0 0 C1.55460937 0.12568359 1.55460937 0.12568359 3.140625 0.25390625 C4.51039132 0.35710782 5.88018447 0.45995374 7.25 0.5625 C8.27287109 0.64661133 8.27287109 0.64661133 9.31640625 0.73242188 C12.7420581 0.98186254 15.72701177 1.13879745 19 0 C19 0.99 19 1.98 19 3 C12.82105839 4.59456558 6.17894161 4.59456558 0 3 C0 2.01 0 1.02 0 0 Z " transform="translate(474,848)" style="fill: #DDDEDD;"/><path d="M0 0 C-1.48039873 2.96079745 -2.4391659 4.69006536 -5.375 6.3125 C-8.04018683 7.01052512 -10.25824486 7.15667172 -13 7 C-9.25 5 -9.25 5 -7 5 C-7.33 4.34 -7.66 3.68 -8 3 C-9.65 3 -11.3 3 -13 3 C-9.52227665 -2.21658502 -5.54962151 -1.19991816 0 0 Z " transform="translate(700,597)" style="fill: #AAABAA;"/><path d="M0 0 C5.0137193 1.67123977 10.22771707 4.35564134 13.23046875 8.8359375 C14.19169372 11.53907778 13.99767977 13.41763372 13.625 16.25 C13.51414062 17.14203125 13.40328125 18.0340625 13.2890625 18.953125 C13.14597656 19.96632812 13.14597656 19.96632812 13 21 C12.34 21 11.68 21 11 21 C11.06960938 19.86111328 11.06960938 19.86111328 11.140625 18.69921875 C11.17671875 17.70535156 11.2128125 16.71148437 11.25 15.6875 C11.31960938 14.20830078 11.31960938 14.20830078 11.390625 12.69921875 C11.28147438 9.85790264 11.28147438 9.85790264 8.984375 8.26953125 C8.00210938 7.64111328 8.00210938 7.64111328 7 7 C7 6.34 7 5.68 7 5 C5.824375 4.7834375 5.824375 4.7834375 4.625 4.5625 C2 4 2 4 0 3 C0 2.01 0 1.02 0 0 Z " transform="translate(525,168)" style="fill: #ECEDEC;"/><path d="M0 0 C0.33 1.32 0.66 2.64 1 4 C-2.44227886 6.08995502 -2.44227886 6.08995502 -4.9375 5.6875 C-5.618125 5.460625 -6.29875 5.23375 -7 5 C-8.66519519 4.65939189 -10.33157466 4.32441604 -12 4 C-8.20200235 -0.17779742 -5.57396889 -1.54832469 0 0 Z " transform="translate(300,219)" style="fill: #F7F8F8;"/><path d="M0 0 C0.33 0 0.66 0 1 0 C0.67 5.28 0.34 10.56 0 16 C-0.66 16 -1.32 16 -2 16 C-2.103125 16.639375 -2.20625 17.27875 -2.3125 17.9375 C-2.539375 18.618125 -2.76625 19.29875 -3 20 C-3.99 20.33 -4.98 20.66 -6 21 C-4.11380178 13.96354423 -2.13072305 6.96640656 0 0 Z " transform="translate(515,380)" style="fill: #0E0F0E;"/><path d="M0 0 C0.66 0.33 1.32 0.66 2 1 C0.35993936 3.6702584 -1.28798562 6.33557296 -2.9375 9 C-3.40607422 9.763125 -3.87464844 10.52625 -4.35742188 11.3125 C-4.80537109 12.034375 -5.25332031 12.75625 -5.71484375 13.5 C-6.12855225 14.1703125 -6.54226074 14.840625 -6.96850586 15.53125 C-7.47909546 16.25828125 -7.47909546 16.25828125 -8 17 C-8.33 17 -8.66 17 -9 17 C-8.67 13.04 -8.34 9.08 -8 5 C-7.67 5.66 -7.34 6.32 -7 7 C-3.17053157 5.54744301 -1.87949705 3.57104439 0 0 Z " transform="translate(471,281)" style="fill: #EBECEB;"/><path d="M0 0 C0.66 0.66 1.32 1.32 2 2 C3.65 1.34 5.3 0.68 7 0 C7 0.66 7 1.32 7 2 C5.04969533 3.33346412 3.00995631 4.43891316 0.9453125 5.5859375 C-1.24916996 7.18112355 -1.99458268 8.51291505 -3 11 C-4.32 11 -5.64 11 -7 11 C-5.72278474 6.00724943 -3.82669043 3.42388092 0 0 Z " transform="translate(417,191)" style="fill: #F9F9F9;"/><path d="M0 0 C0.66 1.32 1.32 2.64 2 4 C-0.31 5.98 -2.62 7.96 -5 10 C-5 9.34 -5 8.68 -5 8 C-6.32 7.34 -7.64 6.68 -9 6 C-9.33 6.66 -9.66 7.32 -10 8 C-10 6.35 -10 4.7 -10 3 C-8.35 2.34 -6.7 1.68 -5 1 C-5 2.32 -5 3.64 -5 5 C-3.35 3.35 -1.7 1.7 0 0 Z " transform="translate(704,590)" style="fill: #F8F8F8;"/><path d="M0 0 C0.66 0.33 1.32 0.66 2 1 C1.91249004 3.70979124 1.80555107 6.41650748 1.6875 9.125 C1.66494141 9.88554687 1.64238281 10.64609375 1.61914062 11.4296875 C1.38777001 16.30950413 0.55683672 19.70890138 -2 24 C-2.99626083 20.82978983 -2.96516845 18.5026511 -2.44140625 15.234375 C-2.30283203 14.34492188 -2.16425781 13.45546875 -2.02148438 12.5390625 C-1.87001953 11.61867188 -1.71855469 10.69828125 -1.5625 9.75 C-1.41490234 8.81414062 -1.26730469 7.87828125 -1.11523438 6.9140625 C-0.75052478 4.60815669 -0.37855026 2.30366712 0 0 Z " transform="translate(446,420)" style="fill: #E2E3E2;"/><path d="M0 0 C0.66 0 1.32 0 2 0 C1.125 5.75 1.125 5.75 0 8 C-0.66 8 -1.32 8 -2 8 C-1.814375 8.598125 -1.62875 9.19625 -1.4375 9.8125 C-1 12 -1 12 -2 15 C-2 15.99 -2 16.98 -2 18 C-2.99 18.33 -3.98 18.66 -5 19 C-4.5464821 11.97047248 -2.87940913 6.4150557 0 0 Z " transform="translate(354,564)" style="fill: #F2F3F3;"/><path d="M0 0 C0.66 0 1.32 0 2 0 C1.85795259 1.58367747 1.71119847 3.16693318 1.5625 4.75 C1.48128906 5.63171875 1.40007812 6.5134375 1.31640625 7.421875 C1.03761535 9.69350452 0.61209423 11.79851823 0 14 C-0.66 14 -1.32 14 -2 14 C-1.67 15.65 -1.34 17.3 -1 19 C-1.99 19.33 -2.98 19.66 -4 20 C-2.07289294 6.3667426 -2.07289294 6.3667426 0 0 Z " transform="translate(451,398)" style="fill: #E9EAE9;"/><path d="M0 0 C0.763125 0.20625 1.52625 0.4125 2.3125 0.625 C0.97337415 5.00759368 -0.80975036 7.16593925 -4.6875 9.625 C-5.6775 9.295 -6.6675 8.965 -7.6875 8.625 C-6.3675 7.965 -5.0475 7.305 -3.6875 6.625 C-3.6875 5.305 -3.6875 3.985 -3.6875 2.625 C-4.3475 2.295 -5.0075 1.965 -5.6875 1.625 C-2.6875 -0.375 -2.6875 -0.375 0 0 Z " transform="translate(479.6875,121.375)" style="fill: #EFF0F0;"/><path d="M0 0 C0.33 0 0.66 0 1 0 C1.33 4.29 1.66 8.58 2 13 C0.35 13 -1.3 13 -3 13 C-2.34 9.7 -1.68 6.4 -1 3 C-2.65 3 -4.3 3 -6 3 C-6 2.67 -6 2.34 -6 2 C-4.02 2 -2.04 2 0 2 C0 1.34 0 0.68 0 0 Z " transform="translate(591,837)" style="fill: #E9EAE9;"/><path d="M0 0 C0.99 0.495 0.99 0.495 2 1 C2.3721042 2.32303717 2.70630173 3.65737935 3 5 C4.96822886 6.96822886 8.34808709 6.66248381 11 7 C10.01 8.485 10.01 8.485 9 10 C6.0625 10.5 6.0625 10.5 3 10 C0.72661235 7.3477144 0.04473264 5.67098964 -0.1875 2.1875 C-0.125625 1.465625 -0.06375 0.74375 0 0 Z " transform="translate(442,174)" style="fill: #E3E4E4;"/><path d="M0 0 C0.66 0.33 1.32 0.66 2 1 C1.01 1.33 0.02 1.66 -1 2 C-1 2.66 -1 3.32 -1 4 C0.32 4.33 1.64 4.66 3 5 C1.68 6.32 0.36 7.64 -1 9 C-3 6 -3 6 -3 4 C-3.66 4 -4.32 4 -5 4 C-5 4.66 -5 5.32 -5 6 C-5.99 5.67 -6.98 5.34 -8 5 C-5.45378681 2.99940392 -3.01962385 1.20784954 0 0 Z " transform="translate(387,175)" style="fill: #EBECEB;"/><path d="M0 0 C3.6812654 4.90835387 3.38327454 6.15506331 3 12 C2 13 2 13 -0.28515625 13.09765625 C-1.65994141 13.08025391 -1.65994141 13.08025391 -3.0625 13.0625 C-3.98160156 13.05347656 -4.90070312 13.04445313 -5.84765625 13.03515625 C-6.55792969 13.02355469 -7.26820313 13.01195312 -8 13 C-8 12.67 -8 12.34 -8 12 C-5.36 11.67 -2.72 11.34 0 11 C0 7.37 0 3.74 0 0 Z " transform="translate(520,310)" style="fill: #E8E9E9;"/><path d="M0 0 C2 2 2 2 2.046875 4.0234375 C1.94890625 4.79945313 1.8509375 5.57546875 1.75 6.375 C1.61851562 7.53128906 1.61851562 7.53128906 1.484375 8.7109375 C0.98335114 11.0786793 0.17347456 12.89351698 -1 15 C-1.66 15 -2.32 15 -3 15 C-2.01 10.05 -1.02 5.1 0 0 Z " transform="translate(471,300)" style="fill: #E7E8E7;"/><path d="M0 0 C4.29 0 8.58 0 13 0 C13 0.33 13 0.66 13 1 C9.7 1.66 6.4 2.32 3 3 C3 3.99 3 4.98 3 6 C2.34 6 1.68 6 1 6 C0.67 4.02 0.34 2.04 0 0 Z " transform="translate(484,161)" style="fill: #EEEFEE;"/><path d="M0 0 C1.26328125 0.19464844 2.5265625 0.38929688 3.828125 0.58984375 C4.79234375 0.74582031 5.7565625 0.90179687 6.75 1.0625 C6.75 1.3925 6.75 1.7225 6.75 2.0625 C0.15 2.0625 -6.45 2.0625 -13.25 2.0625 C-9.22956423 -1.95793577 -5.34441154 -0.84124996 0 0 Z " transform="translate(508.25,609.9375)" style="fill: #E1E2E1;"/><path d="M0 0 C1.10228696 4.40914783 1.07654536 8.48382401 1 13 C0.01 12.67 -0.98 12.34 -2 12 C-2.02687279 10.18757948 -2.04633715 8.37504767 -2.0625 6.5625 C-2.07410156 5.55316406 -2.08570313 4.54382813 -2.09765625 3.50390625 C-1.96099844 0 -1.96099844 0 0 0 Z " transform="translate(430,209)" style="fill: #ECEDEC;"/><path d="M0 0 C0.66 0.33 1.32 0.66 2 1 C1.01 2.485 1.01 2.485 0 4 C0.99 4.99 1.98 5.98 3 7 C0 8 0 8 -3 7 C-3.33 5.35 -3.66 3.7 -4 2 C-2.125 0.9375 -2.125 0.9375 0 0 Z " transform="translate(286,222)" style="fill: #E5E6E6;"/><path d="M0 0 C1.62580966 0.11398665 3.25067157 0.24155659 4.875 0.375 C5.77992188 0.44460937 6.68484375 0.51421875 7.6171875 0.5859375 C10 1 10 1 12 3 C6.06 3.495 6.06 3.495 0 4 C0 2.68 0 1.36 0 0 Z " transform="translate(427,187)" style="fill: #E1E1E1;"/><path d="M0 0 C0.66 0.33 1.32 0.66 2 1 C0.68 4.3 -0.64 7.6 -2 11 C-2.66 10.34 -3.32 9.68 -4 9 C-3.828125 7.08984375 -3.828125 7.08984375 -3.25 4.9375 C-3.06953125 4.22464844 -2.8890625 3.51179688 -2.703125 2.77734375 C-2 1 -2 1 0 0 Z " transform="translate(503,412)" style="fill: #EDEDEC;"/><path d="M0 0 C0.66 0.33 1.32 0.66 2 1 C2 1.33 2 1.66 2 2 C2.99 2.33 3.98 2.66 5 3 C2.61426621 4.89213369 0.92824652 6.02391783 -2 7 C-2 5.02 -2 3.04 -2 1 C-1.34 0.67 -0.68 0.34 0 0 Z " transform="translate(363,188)" style="fill: #F0F0F0;"/><path d="M0 0 C4.51478398 0.53115106 7.34666857 2.36620292 11 5 C9.125 5.625 9.125 5.625 7 6 C6.34 5.34 5.68 4.68 5 4 C3.01643517 3.28591666 1.01684563 2.61382258 -1 2 C-0.67 1.34 -0.34 0.68 0 0 Z " transform="translate(495,786)" style="fill: #EDEEED;"/><path d="M0 0 C8.57142857 -0.14285714 8.57142857 -0.14285714 12 1 C12 1.66 12 2.32 12 3 C8.04 3 4.08 3 0 3 C0 2.01 0 1.02 0 0 Z " transform="translate(679,546)" style="fill: #F8F9F8;"/><path d="M0 0 C0.08121924 1.60332791 0.13929134 3.20784026 0.1875 4.8125 C0.23970703 6.15248047 0.23970703 6.15248047 0.29296875 7.51953125 C-0.04918998 10.41647515 -0.75393573 11.22555028 -3 13 C-3.05391993 11.20866022 -3.09275571 9.41686101 -3.125 7.625 C-3.14820313 6.62726563 -3.17140625 5.62953125 -3.1953125 4.6015625 C-2.84984985 0 -2.84984985 0 0 0 Z " transform="translate(530,443)" style="fill: #E7E8E7;"/><path d="M0 0 C0.66 0.66 1.32 1.32 2 2 C1.96712417 4.72869407 1.43602229 7.2966618 1 10 C0.01 10 -0.98 10 -2 10 C-1.34 6.7 -0.68 3.4 0 0 Z " transform="translate(496,482)" style="fill: #EAECEB;"/><path d="M0 0 C0.99 0 1.98 0 3 0 C2.67 2.97 2.34 5.94 2 9 C1.01 9 0.02 9 -1 9 C-0.67 6.03 -0.34 3.06 0 0 Z " transform="translate(510,421)" style="fill: #E3E5E4;"/><path d="M0 0 C2.31 0 4.62 0 7 0 C6.0022242 2.99332739 5.2477975 3.94766315 3 6 C2.01 4.02 1.02 2.04 0 0 Z " transform="translate(409,245)" style="fill: #F9F9F8;"/><path d="M0 0 C2.84383123 1.2748209 5.13754018 2.45137078 7 5 C6.57421875 7.1015625 6.57421875 7.1015625 6 9 C4.99712471 7.68969568 3.99777175 6.37669473 3 5.0625 C2.443125 4.33160156 1.88625 3.60070312 1.3125 2.84765625 C0 1 0 1 0 0 Z " transform="translate(407,164)" style="fill: #E9EAE9;"/><path d="M0 0 C0.66 0 1.32 0 2 0 C2 0.99 2 1.98 2 3 C-0.75924185 4.80411967 -1.88972103 5.0127245 -5.25 4.625 C-6.1575 4.41875 -7.065 4.2125 -8 4 C-5.35261084 2.5393715 -4.10551666 2 -1 2 C-0.67 1.34 -0.34 0.68 0 0 Z " transform="translate(556,607)" style="fill: #E7E7E7;"/><path d="M0 0 C0.66 0.33 1.32 0.66 2 1 C1.67 3.64 1.34 6.28 1 9 C0.01 9.33 -0.98 9.66 -2 10 C-1.85950482 8.52031676 -1.71245174 7.04125484 -1.5625 5.5625 C-1.48128906 4.73878906 -1.40007812 3.91507813 -1.31640625 3.06640625 C-1 1 -1 1 0 0 Z " transform="translate(351,573)" style="fill: #E5E7E6;"/><path d="M0 0 C0.37211538 7.56634615 0.37211538 7.56634615 -1.51171875 9.76171875 C-2.00285156 10.17035156 -2.49398437 10.57898438 -3 11 C-3.05399736 9.54207116 -3.09279177 8.08357288 -3.125 6.625 C-3.15980469 5.40683594 -3.15980469 5.40683594 -3.1953125 4.1640625 C-3.00494385 2.0547779 -2.62110453 0 0 0 Z " transform="translate(529,457)" style="fill: #EEEFEE;"/><path d="M0 0 C0.33 0 0.66 0 1 0 C0.67 3.63 0.34 7.26 0 11 C-0.66 10.67 -1.32 10.34 -2 10 C-2.25 3.375 -2.25 3.375 0 0 Z " transform="translate(474,292)" style="fill: #F0F1F0;"/><path d="M0 0 C2.16147703 1.08073852 3.41039672 2.19363264 5 4 C5 4.66 5 5.32 5 6 C4.01 6.33 3.02 6.66 2 7 C0.49440461 5.03617993 -0.89131683 3.21736634 -2 1 C-1.34 0.67 -0.68 0.34 0 0 Z " transform="translate(299,216)" style="fill: #E3E4E3;"/><path d="M0 0 C0.66 0.33 1.32 0.66 2 1 C1.01 2.485 1.01 2.485 0 4 C-3.625 4.6875 -3.625 4.6875 -7 5 C-6.67 4.01 -6.34 3.02 -6 2 C-4.0625 1.375 -4.0625 1.375 -2 1 C-1.34 0.67 -0.68 0.34 0 0 Z " transform="translate(401,846)" style="fill: #EDEDED;"/><path d="M0 0 C0.66 0 1.32 0 2 0 C1.34 3.63 0.68 7.26 0 11 C-2 8 -2 8 -1.6875 4.9375 C-1 2 -1 2 0 0 Z " transform="translate(453,802)" style="fill: #EAEBE9;"/><path d="M0 0 C2 3 2 3 2 7 C1.34 7 0.68 7 0 7 C-0.33 8.65 -0.66 10.3 -1 12 C-2.09898702 8.70303895 -1.87124444 7.59505097 -1.0625 4.3125 C-0.86785156 3.50425781 -0.67320312 2.69601562 -0.47265625 1.86328125 C-0.23869141 0.94095703 -0.23869141 0.94095703 0 0 Z " transform="translate(507,436)" style="fill: #E0E1E0;"/><path d="M0 0 C0.99 0.33 1.98 0.66 3 1 C1.35 2.65 -0.3 4.3 -2 6 C-2.33 5.01 -2.66 4.02 -3 3 C-2.01 2.01 -1.02 1.02 0 0 Z " transform="translate(701,590)" style="fill: #141414;"/><path d="M0 0 C1.32 0 2.64 0 4 0 C4.66 2.97 5.32 5.94 6 9 C3.59927045 6.11912454 1.52708963 3.43595166 0 0 Z " transform="translate(429,278)" style="fill: #F6F7F7;"/><path d="M0 0 C0.66 0.33 1.32 0.66 2 1 C1.5359375 2.1446875 1.5359375 2.1446875 1.0625 3.3125 C0.32106407 5.18789677 -0.36228217 7.08684652 -1 9 C-1.66 9 -2.32 9 -3 9 C-2.69181644 7.68647977 -2.37832335 6.37420428 -2.0625 5.0625 C-1.88847656 4.33160156 -1.71445312 3.60070312 -1.53515625 2.84765625 C-1 1 -1 1 0 0 Z " transform="translate(494,587)" style="fill: #E2E3E3;"/><path d="M0 0 C0 0.66 0 1.32 0 2 C-2.31 2.33 -4.62 2.66 -7 3 C-7 2.01 -7 1.02 -7 0 C-3.98968256 -0.93423645 -3.13349732 -1.04449911 0 0 Z " transform="translate(679,547)" style="fill: #E6E8E7;"/><path d="M0 0 C1.88343932 3.76687864 2.22057835 5.02958963 2 9 C1.01 9 0.02 9 -1 9 C-0.67 6.03 -0.34 3.06 0 0 Z " transform="translate(512,410)" style="fill: #E5E5E4;"/><path d="M0 0 C0.66 0.66 1.32 1.32 2 2 C1.625 5.125 1.625 5.125 1 8 C0.01 8 -0.98 8 -2 8 C-1.34 5.36 -0.68 2.72 0 0 Z " transform="translate(508,394)" style="fill: #EEEFED;"/><path d="M0 0 C2.12508244 3.18762365 2.5020163 5.26512223 3 9 C2.01 9 1.02 9 0 9 C-0.84454356 5.62182575 -1.10844919 3.32534757 0 0 Z " transform="translate(261,254)" style="fill: #EBEDEC;"/><path d="M0 0 C2.1519437 3.22791555 2.20086443 4.28400809 2 8 C1.01 7.67 0.02 7.34 -1 7 C-1.04254356 5.00045254 -1.04080783 2.99958364 -1 1 C-0.67 0.67 -0.34 0.34 0 0 Z " transform="translate(284,248)" style="fill: #EAEBEB;"/><path d="M0 0 C3.53586014 3.17320782 5.58578031 5.16743695 6 10 C3.66475218 7.74259377 1.81294927 5.7194239 0 3 C0 2.01 0 1.02 0 0 Z " transform="translate(433,230)" style="fill: #ECEDED;"/><path d="M0 0 C2.475 0.495 2.475 0.495 5 1 C4.34 2.65 3.68 4.3 3 6 C2.67 5.01 2.34 4.02 2 3 C1.34 2.67 0.68 2.34 0 2 C0 1.34 0 0.68 0 0 Z " transform="translate(477,121)" style="fill: #E6E7E6;"/><path d="M0 0 C0.66 0.33 1.32 0.66 2 1 C0.515 2.485 0.515 2.485 -1 4 C-1.99 3.67 -2.98 3.34 -4 3 C-2.68 2.01 -1.36 1.02 0 0 Z M-6 4 C-5.34 4.33 -4.68 4.66 -4 5 C-5.98 5.99 -5.98 5.99 -8 7 C-7.34 6.01 -6.68 5.02 -6 4 Z " transform="translate(419,115)" style="fill: #EAEAEA;"/><path d="M0 0 C0 0.66 0 1.32 0 2 C-3.63 1.67 -7.26 1.34 -11 1 C-11 0.67 -11 0.34 -11 0 C-6.98195309 -0.84098656 -3.98196457 -1.05404945 0 0 Z " transform="translate(445,112)" style="fill: #EBEDEC;"/></svg>